<svg id="Layer_1" data-name="Layer 1" xmlns="http://www.w3.org/2000/svg" viewBox="0 0 51.27 50"><defs><style>.cls-1{fill:#191717;fill-rule:evenodd;}</style></defs><title>github</title><path class="cls-1" d="M25.63,0a25.64,25.64,0,0,0-8.1,50,1.29,1.29,0,0,0,1.75-1.24c0-.61,0-2.22,0-4.36-7.13,1.55-8.63-3.44-8.63-3.44-1.17-3-2.85-3.75-2.85-3.75-2.33-1.59.18-1.56,0.18-1.56a5.38,5.38,0,0,1,3.93,2.64c2.29,3.92,6,2.79,7.46,2.13A5.48,5.48,0,0,1,21,37c-5.69-.65-11.68-2.85-11.68-12.67a9.91,9.91,0,0,1,2.64-6.88,9.22,9.22,0,0,1,.25-6.78s2.15-.69,7,2.63a24.3,24.3,0,0,1,12.83,0c4.89-3.32,7-2.63,7-2.63a9.21,9.21,0,0,1,.26,6.78A9.89,9.89,0,0,1,42,24.29c0,9.85-6,12-11.7,12.65A6.12,6.12,0,0,1,32,41.69c0,3.43,0,6.19,0,7A1.28,1.28,0,0,0,33.75,50,25.64,25.64,0,0,0,25.63,0Z"/></svg>