<svg id="Layer_1" data-name="Layer 1" xmlns="http://www.w3.org/2000/svg" viewBox="0 0 50 50"><title>link-icon</title><path d="M47.4,43l-4.5,4.47a8.84,8.84,0,0,1-12.47-.06l-6.31-6.34a8.76,8.76,0,0,1-2.54-6.22,9,9,0,0,1,2.7-6.4l-2.7-2.7a8.88,8.88,0,0,1-12.62.12L2.57,19.49A8.8,8.8,0,0,1,2.6,7l4.5-4.47a8.84,8.84,0,0,1,12.47.06l6.31,6.34a8.76,8.76,0,0,1,2.54,6.22,9,9,0,0,1-2.7,6.4l2.7,2.7a8.88,8.88,0,0,1,12.62-.12l6.37,6.37A8.8,8.8,0,0,1,47.4,43ZM21.72,13.08L15.41,6.74a3,3,0,0,0-2.08-.86,3.08,3.08,0,0,0-2.08.83l-4.5,4.47a2.92,2.92,0,0,0,0,4.14l6.37,6.37a2.94,2.94,0,0,0,2.08.83,2.88,2.88,0,0,0,2.21-.95c-1-1-2.21-1.87-2.21-3.43a2.94,2.94,0,0,1,2.94-2.94c1.56,0,2.42,1.19,3.43,2.21A3,3,0,0,0,21.72,13.08Zm21.54,21.6-6.37-6.37a3,3,0,0,0-2.08-.86,2.91,2.91,0,0,0-2.21,1c1,1,2.21,1.87,2.21,3.43a2.94,2.94,0,0,1-2.94,2.94c-1.56,0-2.42-1.2-3.43-2.21a3,3,0,0,0-.15,4.32l6.31,6.34a2.94,2.94,0,0,0,2.08.83,3.05,3.05,0,0,0,2.08-.8l4.5-4.47A2.92,2.92,0,0,0,43.26,34.68Z"/></svg>