<svg id="YouTube_Icon" data-name="YouTube Icon" xmlns="http://www.w3.org/2000/svg" xmlns:xlink="http://www.w3.org/1999/xlink" viewBox="0 0 216 151.92"><defs><style>.cls-1{fill:#fff;}.cls-2{fill:#420000;fill-rule:evenodd;opacity:0.12;}.cls-3{fill:url(#linear-gradient);}</style><linearGradient id="linear-gradient" x1="108" y1="0.08" x2="108" y2="152" gradientUnits="userSpaceOnUse"><stop offset="0" stop-color="#e52d27"/><stop offset="1" stop-color="#bf171d"/></linearGradient></defs><title>YouTube-icon-full_color</title><path id="Triangle" class="cls-1" d="M85.69,104.06l58.36-30.24L85.69,43.37v60.69Z" transform="translate(0 -0.08)"/><path id="The_Sharpness" data-name="The Sharpness" class="cls-2" d="M85.69,43.37l51.18,34.18,7.18-3.73Z" transform="translate(0 -0.08)"/><g id="Lozenge"><path class="cls-3" d="M213.84,32.86S211.73,18,205.26,11.42c-8.21-8.6-17.42-8.65-21.64-9.15C153.39,0.08,108,.08,108,0.08H108s-45.34,0-75.57,2.18c-4.22.5-13.43,0.55-21.64,9.15C4.27,18,2.16,32.86,2.16,32.86A326.66,326.66,0,0,0,0,67.82V84.2a326.66,326.66,0,0,0,2.16,35S4.27,134,10.74,140.6c8.22,8.6,19,8.33,23.82,9.23C51.84,151.49,108,152,108,152s45.39-.07,75.61-2.25c4.22-.5,13.43-0.55,21.64-9.15,6.48-6.55,8.59-21.44,8.59-21.44a327.14,327.14,0,0,0,2.16-35V67.82A327.14,327.14,0,0,0,213.84,32.86ZM85.7,104.06V43.37l58.36,30.45Z" transform="translate(0 -0.08)"/></g></svg>